P3
# simple forest-like gradient
4 4
255
 34 139 34   34 139 34   60 179 113  85 107 47
 34 139 34   46 139 87   107 142 35  60 179 113
 0 100 0     46 139 87   34 139 34   85 107 47
 139 69 19   160 82 45   34 139 34   34 139 34

