P3
# simple ocean palette
4 4
255
 25 25 112  65 105 225  70 130 180  32 178 170
 0 105 148  30 144 255  70 130 180  0 191 255
 25 25 112  0 0 139      65 105 225  123 104 238
 0 191 255  70 130 180  65 105 225  25 25 112

