P3
# simple sunrise palette
4 4
255
 255 69 0    255 99 71   255 140 0   255 215 0
 255 165 0   255 140 0   255 215 0   173 216 230
 238 130 238  216 191 216  173 216 230  135 206 235
 70 130 180   65 105 225   25 25 112   0 0 128

